inDegrees=yes
name=ik_S46_A09_T02
DataType=double
version=3
OpenSimVersion=4.3-2021-08-27-4bc7ad9
endheader
time	pelvis_tilt	pelvis_list	pelvis_rotation	pelvis_tx	pelvis_ty	pelvis_tz	hip_flexion_r	hip_adduction_r	hip_rotation_r	knee_angle_r	knee_angle_r_beta	ankle_angle_r	subtalar_angle_r	mtp_angle_r	hip_flexion_l	hip_adduction_l	hip_rotation_l	knee_angle_l	knee_angle_l_beta	ankle_angle_l	subtalar_angle_l	mtp_angle_l	lumbar_extension	lumbar_bending	lumbar_rotation	arm_flex_r	arm_add_r	arm_rot_r	elbow_flex_r	pro_sup_r	wrist_flex_r	wrist_dev_r	arm_flex_l	arm_add_l	arm_rot_l	elbow_flex_l	pro_sup_l	wrist_flex_l	wrist_dev_l
0	0	0	0	0	0.9399999999999999	0	0	0	0	0	0	0	0	0	0	0	0	0	0	0	0	0	0	0	0	0	0	0	0	89.99999999963507	0	0	0	0	0	0	89.99999999869995	0	0
0.02	-11.35151186612741	-0.4884734589964684	25.21003304589095	0	0.9399999999999999	0	3.720658298535572	-1.751751107787231	-1.254374870050234	5.740911986811384	0.1001978162370679	0	0	0	3.720658298535572	-1.751751107787231	-1.254374870050234	5.740911986811384	0.1001978162370679	0	0	0	-7.821742474017008	-4.580093077522066	3.86004376463799	14.18692421703041	-6.773900178302322	0.5301075300204576	63.75710016677486	134.653558395974	0	0	14.04930151711389	-5.500917124731248	5.634571582064538	55.40981118307572	114.4005713350505	0	0
0.04	-10.43610919769946	-1.500097871983475	26.60313064369155	0	0.9399999999999999	0	21.20289628822728	-9.191672824686618	-6.839596052951051	28.59117121828466	0.4990100747605057	0	0	0	21.20289628822728	-9.191672824686618	-6.839596052951051	28.59117121828466	0.4990100747605057	0	0	0	-8.270309863926487	-3.110590283862579	2.692527013711712	14.20216588223265	-6.740556829606816	0.535155426270017	63.72683918553746	134.6390369596212	0	0	14.03951750596584	-5.526231757574115	5.654683125429162	55.43145813998764	114.3535703828293	0	0
0.06	-10.43234001106082	-1.515804323479668	26.61511747825507	0	0.9399999999999999	0	21.38809944881492	-9.209114026262998	-6.887156528442997	28.74214476348137	0.5016450602075967	0	0	0	21.38809944881492	-9.209114026262998	-6.887156528442997	28.74214476348137	0.5016450602075967	0	0	0	-8.28397387015151	-3.089372355112689	2.669888777857723	14.20428426125199	-6.773989402249346	0.5388473167579183	63.79148784697293	134.5748645389425	0	0	14.07547696797352	-5.499552981115245	5.54042558315413	55.46493547079136	114.33294696434	0	0
0.08	-10.42540921928675	-1.516121222051381	26.62532211609475	0	0.9399999999999999	0	21.4183599159845	-9.211634104661	-6.894379839434464	28.76729706056734	0.5020840506061868	0	0	0	21.4183599159845	-9.211634104661	-6.894379839434464	28.76729706056734	0.5020840506061868	0	0	0	-8.279428141922626	-3.087539548399032	2.671571041687884	14.20274824815893	-6.756795051688891	0.5179635114882372	63.79062518044904	134.5579557260144	0	0	14.05856291491525	-5.485556862627771	5.55197208083524	55.46946606520645	114.3182834516809	0	0
0.1	-10.40076968481253	-1.515567546998805	26.65226105616558	0	0.9399999999999999	0	21.47940728097026	-9.21649315731791	-6.909189266060236	28.81847238089396	0.5029772284416489	0	0	0	21.47940728097026	-9.21649315731791	-6.909189266060236	28.81847238089396	0.5029772284416489	0	0	0	-8.260468287921283	-3.085394956052135	2.668370635292993	14.16411722966296	-6.732613040138298	0.4695185095282425	63.6948859816212	134.6469835844123	0	0	14.03927984672367	-5.432399543544919	5.517691210870769	55.39828747784752	114.3922884042901	0	0
0.12	-10.39184120074134	-1.539352846650047	26.6671164095167	0	0.9399999999999999	0	21.637382730984	-9.231639794349336	-6.950041677016729	28.94686539002825	0.5052181091875855	0	0	0	21.637382730984	-9.231639794349336	-6.950041677016729	28.94686539002825	0.5052181091875855	0	0	0	-8.270997765121109	-3.08218025489268	2.666185610583899	14.18517732799087	-6.72359516019119	0.4667645845483481	63.72376019965692	134.533458767136	0	0	14.05441123347447	-5.46389066226071	5.550667023197739	55.45108848114371	114.2943054595441	0	0
0.14	-10.38262921409491	-1.539571647391769	26.65929674835251	0	0.9399999999999999	0	21.67710126862298	-9.236043320448351	-6.961136667950496	28.97855883817997	0.5057712642091432	0	0	0	21.67710126862298	-9.236043320448351	-6.961136667950496	28.97855883817997	0.5057712642091432	0	0	0	-8.265146825151069	-3.080082383588992	2.671309193007418	14.17241757181617	-6.71011607576895	0.445803866308364	63.64227728606613	134.5832024662763	0	0	14.01967658555842	-5.436283946843334	5.578160060459372	55.42772388131458	114.3216663986815	0	0
0.16	-10.35361151237402	-1.547959411968911	26.66775957602524	0	0.9399999999999999	0	21.82591969750159	-9.249102535279754	-6.998195394120647	29.10101756406167	0.507908572173576	0	0	0	21.82591969750159	-9.249102535279754	-6.998195394120647	29.10101756406167	0.507908572173576	0	0	0	-8.25013635791529	-3.075705284731334	2.684650339602125	14.1287051760368	-6.700731321074609	0.4304690773894707	63.60300908555543	134.5774480151646	0	0	13.98410382097829	-5.460932844178127	5.644534106969134	55.43778275564578	114.2705494252581	0	0
0.18	-10.34941615049391	-1.561773042804815	26.66233492817665	0	0.9399999999999999	0	21.95617356865179	-9.26204025878528	-7.032642320997607	29.20634607474781	0.5097469014812711	0	0	0	21.95617356865179	-9.26204025878528	-7.032642320997607	29.20634607474781	0.5097469014812711	0	0	0	-8.258962488477454	-3.066659046822621	2.681727585991424	14.16602592145433	-6.700330675591268	0.4482901282533712	63.55378408736468	134.5858996362695	0	0	14.01038813419785	-5.442203271032356	5.656729037581797	55.41808136519307	114.2604992930891	0	0
0.2	-10.33293851398253	-1.573005967874131	26.67273944758526	0	0.9399999999999999	0	22.13992796192915	-9.276955885976736	-7.076586131311551	29.3588682969749	0.5124089164415925	0	0	0	22.13992796192915	-9.276955885976736	-7.076586131311551	29.3588682969749	0.5124089164415925	0	0	0	-8.259022872437168	-3.04964100387233	2.681710529403549	14.15251832440627	-6.728919141167158	0.4656384647933023	63.56463809869606	134.5356508514861	0	0	14.00123029460965	-5.450640983765934	5.707766836598937	55.46205024208425	114.1505018470991	0	0
0.22	-10.31554653705115	-1.577742802356432	26.68284501664904	0	0.9399999999999999	0	22.22118153033739	-9.284412393541796	-7.097344329767138	29.42544992095703	0.5135709850014054	0	0	0	22.22118153033739	-9.284412393541796	-7.097344329767138	29.42544992095703	0.5135709850014054	0	0	0	-8.249824257209072	-3.045485080672289	2.673874386238998	14.13004974849564	-6.721788426017397	0.4872661522505795	63.51999079849665	134.5806072015034	0	0	14.00524452818132	-5.429699804970552	5.706490104526494	55.39680176398274	114.1704919270078	0	0
0.24	-10.2951989264925	-1.585785823436309	26.69988963841255	0	0.9399999999999999	0	22.31841307974943	-9.293560647134655	-7.122379891152809	29.5047749953215	0.5149554687284547	0	0	0	22.31841307974943	-9.293560647134655	-7.122379891152809	29.5047749953215	0.5149554687284547	0	0	0	-8.240789951508887	-3.041733670365239	2.66195517077431	14.09339736991712	-6.718859196102878	0.4670744034997062	63.49736493911548	134.5784276416997	0	0	14.04380116332777	-5.390824584837997	5.63116428131718	55.34262201020563	114.1423741679007	0	0
0.26	-10.27937841426825	-1.597127910948223	26.73083041214129	0	0.9399999999999999	0	22.4182720847515	-9.303050520348922	-7.148309828471117	29.58607091711507	0.5163743502321964	0	0	0	22.4182720847515	-9.303050520348922	-7.148309828471117	29.58607091711507	0.5163743502321964	0	0	0	-8.236839507430444	-3.040955652916196	2.663835208626354	14.07832628983062	-6.716712780667708	0.4242940577707046	63.46827610330276	134.5874652176571	0	0	14.06376932469769	-5.35698602922582	5.599931045480294	55.28086863447664	114.2341736588523	0	0
0.28	-10.25385513998367	-1.607837612471497	26.74522095089018	0	0.9399999999999999	0	22.53359461855659	-9.313871018399501	-7.177923402218676	29.67996255429637	0.518013068441098	0	0	0	22.53359461855659	-9.313871018399501	-7.177923402218676	29.67996255429637	0.518013068441098	0	0	0	-8.225028914025144	-3.039717366376284	2.655762585249683	14.04879448565417	-6.703322893555283	0.4186464318583795	63.4624295386731	134.5802094137659	0	0	14.06267791986487	-5.334976332466709	5.565681850613172	55.27974345215961	114.1433340902067	0	0
0.3	-10.24557057280345	-1.628320084119532	26.75424686662836	0	0.9399999999999999	0	22.65755964144752	-9.325817335476613	-7.210228320934135	29.78041281668007	0.5197662562541857	0	0	0	22.65755964144752	-9.325817335476613	-7.210228320934135	29.78041281668007	0.5197662562541857	0	0	0	-8.23323970109084	-3.038383372417213	2.644980292631671	14.05479394687718	-6.699146959181726	0.4251694475233057	63.43800773768533	134.5799439636526	0	0	14.10743718028015	-5.305147805006082	5.518734069390223	55.27268715987333	114.1469546455599	0	0
0.32	-10.21309734450841	-1.634442913571276	26.77443132064979	0	0.9399999999999999	0	22.82185633406641	-9.340267803806938	-7.250945965859784	29.91515831748065	0.5221180088954044	0	0	0	22.82185633406641	-9.340267803806938	-7.250945965859784	29.91515831748065	0.5221180088954044	0	0	0	-8.215649537744742	-3.026947100442166	2.634824634536997	14.02243221851574	-6.723457663172648	0.4811037944770477	63.4663078595147	134.4967071096451	0	0	14.05065573541681	-5.32601905517439	5.542891300902397	55.34220544030875	114.0143337506921	0	0
0.34	-10.19781416430854	-1.654238549613952	26.80405508305857	0	0.9399999999999999	0	22.87892392856897	-9.346689199618456	-7.267197738089648	29.96035901833025	0.522906909949439	0	0	0	22.87892392856897	-9.346689199618456	-7.267197738089648	29.96035901833025	0.522906909949439	0	0	0	-8.212518442839462	-3.043451553213999	2.638634800453577	14.01267129435745	-6.706383425527593	0.4686364624137321	63.42874176560363	134.5833768437962	0	0	14.06598650818523	-5.299070496666248	5.548283086729202	55.26577955317647	114.1401636165034	0	0
0.36	-10.18011506916109	-1.675817878597165	26.81802772074201	0	0.9399999999999999	0	22.98922404803267	-9.357358747911338	-7.295909676970431	30.04953452258927	0.524463316110885	0	0	0	22.98922404803267	-9.357358747911338	-7.295909676970431	30.04953452258927	0.524463316110885	0	0	0	-8.211983185567529	-3.050295285356999	2.63439440052837	14.0227742859848	-6.695201690913956	0.4850730308231743	63.40706643701029	134.569471539779	0	0	14.06096716765236	-5.322938181171256	5.555622830867529	55.30881154583597	114.09710129689	0	0
